<?xml version="1.0" encoding="UTF-8" standalone="no"?>
<!DOCTYPE svg PUBLIC "-//W3C//DTD SVG 1.1//EN"
 "http://www.w3.org/Graphics/SVG/1.1/DTD/svg11.dtd">
<!-- Generated by graphviz version 2.43.0 (0)
 -->
<!-- Title: nedresourcecache.h Pages: 1 -->
<svg width="430pt" height="140pt"
 viewBox="0.00 0.00 429.50 140.00" xmlns="http://www.w3.org/2000/svg" xmlns:xlink="http://www.w3.org/1999/xlink">
<g id="graph0" class="graph" transform="scale(1 1) rotate(0) translate(4 136)">
<title>nedresourcecache.h</title>
<polygon fill="white" stroke="transparent" points="-4,4 -4,-136 425.5,-136 425.5,4 -4,4"/>
<!-- Node1 -->
<g id="node1" class="node">
<title>Node1</title>
<g id="a_node1"><a xlink:title=" ">
<polygon fill="#bfbfbf" stroke="black" points="130,-112.5 130,-131.5 244,-131.5 244,-112.5 130,-112.5"/>
<text text-anchor="middle" x="187" y="-119.5" font-family="Helvetica,sans-Serif" font-size="10.00">nedresourcecache.h</text>
</a>
</g>
</g>
<!-- Node2 -->
<g id="node2" class="node">
<title>Node2</title>
<g id="a_node2"><a xlink:title=" ">
<polygon fill="white" stroke="#bfbfbf" points="0,-0.5 0,-19.5 38,-19.5 38,-0.5 0,-0.5"/>
<text text-anchor="middle" x="19" y="-7.5" font-family="Helvetica,sans-Serif" font-size="10.00">map</text>
</a>
</g>
</g>
<!-- Node1&#45;&gt;Node2 -->
<g id="edge1" class="edge">
<title>Node1&#45;&gt;Node2</title>
<path fill="none" stroke="midnightblue" d="M172.83,-112.36C158.24,-103.41 134.89,-88.94 115,-76 88.79,-58.94 59.02,-38.64 39.68,-25.32"/>
<polygon fill="midnightblue" stroke="midnightblue" points="41.55,-22.36 31.33,-19.56 37.57,-28.12 41.55,-22.36"/>
</g>
<!-- Node3 -->
<g id="node3" class="node">
<title>Node3</title>
<g id="a_node3"><a xlink:title=" ">
<polygon fill="white" stroke="#bfbfbf" points="56.5,-0.5 56.5,-19.5 103.5,-19.5 103.5,-0.5 56.5,-0.5"/>
<text text-anchor="middle" x="80" y="-7.5" font-family="Helvetica,sans-Serif" font-size="10.00">vector</text>
</a>
</g>
</g>
<!-- Node1&#45;&gt;Node3 -->
<g id="edge2" class="edge">
<title>Node1&#45;&gt;Node3</title>
<path fill="none" stroke="midnightblue" d="M176.47,-112.43C165.88,-103.66 149.28,-89.44 136,-76 120.54,-60.36 104.28,-41.13 93.29,-27.67"/>
<polygon fill="midnightblue" stroke="midnightblue" points="95.9,-25.32 86.89,-19.74 90.45,-29.72 95.9,-25.32"/>
</g>
<!-- Node4 -->
<g id="node4" class="node">
<title>Node4</title>
<g id="a_node4"><a xlink:title=" ">
<polygon fill="white" stroke="#bfbfbf" points="270,-0.5 270,-19.5 314,-19.5 314,-0.5 270,-0.5"/>
<text text-anchor="middle" x="292" y="-7.5" font-family="Helvetica,sans-Serif" font-size="10.00">string</text>
</a>
</g>
</g>
<!-- Node1&#45;&gt;Node4 -->
<g id="edge3" class="edge">
<title>Node1&#45;&gt;Node4</title>
<path fill="none" stroke="midnightblue" d="M197.59,-112.48C208.21,-103.75 224.84,-89.56 238,-76 253.09,-60.46 268.74,-41.22 279.28,-27.72"/>
<polygon fill="midnightblue" stroke="midnightblue" points="282.07,-29.83 285.41,-19.77 276.53,-25.55 282.07,-29.83"/>
</g>
<!-- Node5 -->
<g id="node5" class="node">
<title>Node5</title>
<g id="a_node5"><a xlink:title=" ">
<polygon fill="white" stroke="#bfbfbf" points="332.5,-0.5 332.5,-19.5 421.5,-19.5 421.5,-0.5 332.5,-0.5"/>
<text text-anchor="middle" x="377" y="-7.5" font-family="Helvetica,sans-Serif" font-size="10.00">nedelements.h</text>
</a>
</g>
</g>
<!-- Node1&#45;&gt;Node5 -->
<g id="edge4" class="edge">
<title>Node1&#45;&gt;Node5</title>
<path fill="none" stroke="midnightblue" d="M201.91,-112.37C234.79,-93.33 313.76,-47.62 353.42,-24.65"/>
<polygon fill="midnightblue" stroke="midnightblue" points="355.26,-27.63 362.16,-19.59 351.75,-21.57 355.26,-27.63"/>
</g>
<!-- Node6 -->
<g id="node6" class="node">
<title>Node6</title>
<g id="a_node6"><a xlink:href="nedtypeinfo_8h.html" target="_top" xlink:title=" ">
<polygon fill="white" stroke="black" points="145,-56.5 145,-75.5 229,-75.5 229,-56.5 145,-56.5"/>
<text text-anchor="middle" x="187" y="-63.5" font-family="Helvetica,sans-Serif" font-size="10.00">nedtypeinfo.h</text>
</a>
</g>
</g>
<!-- Node1&#45;&gt;Node6 -->
<g id="edge5" class="edge">
<title>Node1&#45;&gt;Node6</title>
<path fill="none" stroke="midnightblue" d="M187,-112.08C187,-105.01 187,-94.86 187,-85.99"/>
<polygon fill="midnightblue" stroke="midnightblue" points="190.5,-85.75 187,-75.75 183.5,-85.75 190.5,-85.75"/>
</g>
<!-- Node6&#45;&gt;Node2 -->
<g id="edge6" class="edge">
<title>Node6&#45;&gt;Node2</title>
<path fill="none" stroke="midnightblue" d="M160.38,-56.44C129.66,-46.57 79.32,-30.39 47.73,-20.23"/>
<polygon fill="midnightblue" stroke="midnightblue" points="48.77,-16.89 38.18,-17.16 46.63,-23.56 48.77,-16.89"/>
</g>
<!-- Node6&#45;&gt;Node3 -->
<g id="edge7" class="edge">
<title>Node6&#45;&gt;Node3</title>
<path fill="none" stroke="midnightblue" d="M169.81,-56.32C152.65,-47.66 126.05,-34.24 106.25,-24.25"/>
<polygon fill="midnightblue" stroke="midnightblue" points="107.65,-21.04 97.15,-19.65 104.5,-27.28 107.65,-21.04"/>
</g>
<!-- Node6&#45;&gt;Node4 -->
<g id="edge8" class="edge">
<title>Node6&#45;&gt;Node4</title>
<path fill="none" stroke="midnightblue" d="M203.87,-56.32C220.71,-47.66 246.81,-34.24 266.24,-24.25"/>
<polygon fill="midnightblue" stroke="midnightblue" points="267.88,-27.34 275.17,-19.65 264.68,-21.12 267.88,-27.34"/>
</g>
<!-- Node6&#45;&gt;Node5 -->
<g id="edge10" class="edge">
<title>Node6&#45;&gt;Node5</title>
<path fill="none" stroke="midnightblue" d="M217.11,-56.44C249.63,-47.2 301.58,-32.44 337.39,-22.26"/>
<polygon fill="midnightblue" stroke="midnightblue" points="338.37,-25.62 347.03,-19.52 336.46,-18.88 338.37,-25.62"/>
</g>
<!-- Node7 -->
<g id="node7" class="node">
<title>Node7</title>
<g id="a_node7"><a xlink:title=" ">
<polygon fill="white" stroke="#bfbfbf" points="122,-0.5 122,-19.5 252,-19.5 252,-0.5 122,-0.5"/>
<text text-anchor="middle" x="187" y="-7.5" font-family="Helvetica,sans-Serif" font-size="10.00">common/commonutil.h</text>
</a>
</g>
</g>
<!-- Node6&#45;&gt;Node7 -->
<g id="edge9" class="edge">
<title>Node6&#45;&gt;Node7</title>
<path fill="none" stroke="midnightblue" d="M187,-56.08C187,-49.01 187,-38.86 187,-29.99"/>
<polygon fill="midnightblue" stroke="midnightblue" points="190.5,-29.75 187,-19.75 183.5,-29.75 190.5,-29.75"/>
</g>
</g>
</svg>
