<?xml version="1.0" encoding="UTF-8" standalone="no"?>
<!DOCTYPE svg PUBLIC "-//W3C//DTD SVG 1.1//EN"
 "http://www.w3.org/Graphics/SVG/1.1/DTD/svg11.dtd">
<!-- Generated by graphviz version 2.43.0 (0)
 -->
<!-- Title: cWatchBase Pages: 1 -->
<svg width="601pt" height="294pt"
 viewBox="0.00 0.00 601.00 294.00" xmlns="http://www.w3.org/2000/svg" xmlns:xlink="http://www.w3.org/1999/xlink">
<g id="graph0" class="graph" transform="scale(1 1) rotate(0) translate(4 290)">
<title>cWatchBase</title>
<polygon fill="white" stroke="transparent" points="-4,4 -4,-290 597,-290 597,4 -4,4"/>
<!-- Node1 -->
<g id="node1" class="node">
<title>Node1</title>
<g id="a_node1"><a xlink:title="Helper class to make primitive types and non&#45;cOwnedObject objects inspectable in Qtenv....">
<polygon fill="#bfbfbf" stroke="black" points="310,-133.5 310,-152.5 386,-152.5 386,-133.5 310,-133.5"/>
<text text-anchor="middle" x="348" y="-140.5" font-family="Helvetica,sans-Serif" font-size="10.00">cWatchBase</text>
</a>
</g>
</g>
<!-- Node7 -->
<g id="node5" class="node">
<title>Node7</title>
<g id="a_node5"><a xlink:href="classomnetpp_1_1cGenericAssignableWatch.html" target="_top" xlink:title="Template Watch class, for any type that supports operator&lt;&lt;, and operator&gt;&gt; for assignment.">
<polygon fill="white" stroke="black" points="422,-266.5 422,-285.5 593,-285.5 593,-266.5 422,-266.5"/>
<text text-anchor="middle" x="507.5" y="-273.5" font-family="Helvetica,sans-Serif" font-size="10.00">cGenericAssignableWatch&lt; T &gt;</text>
</a>
</g>
</g>
<!-- Node1&#45;&gt;Node7 -->
<g id="edge4" class="edge">
<title>Node1&#45;&gt;Node7</title>
<path fill="none" stroke="midnightblue" d="M355.89,-162.2C366.16,-187.94 388,-233.17 422,-257 427.54,-260.88 433.75,-263.99 440.21,-266.47"/>
<polygon fill="midnightblue" stroke="midnightblue" points="359.13,-160.87 352.3,-152.77 352.59,-163.36 359.13,-160.87"/>
</g>
<!-- Node8 -->
<g id="node6" class="node">
<title>Node8</title>
<g id="a_node6"><a xlink:href="classomnetpp_1_1cGenericReadonlyWatch.html" target="_top" xlink:title="Template Watch class, for any type that supports operator&lt;&lt;.">
<polygon fill="white" stroke="black" points="425.5,-228.5 425.5,-247.5 589.5,-247.5 589.5,-228.5 425.5,-228.5"/>
<text text-anchor="middle" x="507.5" y="-235.5" font-family="Helvetica,sans-Serif" font-size="10.00">cGenericReadonlyWatch&lt; T &gt;</text>
</a>
</g>
</g>
<!-- Node1&#45;&gt;Node8 -->
<g id="edge5" class="edge">
<title>Node1&#45;&gt;Node8</title>
<path fill="none" stroke="midnightblue" d="M361.32,-160.95C374.33,-178.5 396.49,-204.62 422,-219 428.94,-222.91 436.63,-226.02 444.46,-228.49"/>
<polygon fill="midnightblue" stroke="midnightblue" points="364.05,-158.75 355.37,-152.66 358.36,-162.83 364.05,-158.75"/>
</g>
<!-- Node9 -->
<g id="node7" class="node">
<title>Node9</title>
<g id="a_node7"><a xlink:href="classomnetpp_1_1cWatch__bool.html" target="_top" xlink:title="Watch class, specifically for bool.">
<polygon fill="white" stroke="black" points="468.5,-190.5 468.5,-209.5 546.5,-209.5 546.5,-190.5 468.5,-190.5"/>
<text text-anchor="middle" x="507.5" y="-197.5" font-family="Helvetica,sans-Serif" font-size="10.00">cWatch_bool</text>
</a>
</g>
</g>
<!-- Node1&#45;&gt;Node9 -->
<g id="edge6" class="edge">
<title>Node1&#45;&gt;Node9</title>
<path fill="none" stroke="midnightblue" d="M373.3,-157.67C387.16,-165.52 405.1,-174.82 422,-181 436.83,-186.42 453.71,-190.59 468.46,-193.63"/>
<polygon fill="midnightblue" stroke="midnightblue" points="374.82,-154.51 364.41,-152.53 371.31,-160.57 374.82,-154.51"/>
</g>
<!-- Node10 -->
<g id="node8" class="node">
<title>Node10</title>
<g id="a_node8"><a xlink:href="classomnetpp_1_1cWatch__char.html" target="_top" xlink:title="Watch class, specifically for char.">
<polygon fill="white" stroke="black" points="468.5,-152.5 468.5,-171.5 546.5,-171.5 546.5,-152.5 468.5,-152.5"/>
<text text-anchor="middle" x="507.5" y="-159.5" font-family="Helvetica,sans-Serif" font-size="10.00">cWatch_char</text>
</a>
</g>
</g>
<!-- Node1&#45;&gt;Node10 -->
<g id="edge7" class="edge">
<title>Node1&#45;&gt;Node10</title>
<path fill="none" stroke="midnightblue" d="M396.55,-148.74C419.53,-151.51 446.75,-154.79 468.35,-157.4"/>
<polygon fill="midnightblue" stroke="midnightblue" points="396.67,-145.23 386.33,-147.5 395.83,-152.18 396.67,-145.23"/>
</g>
<!-- Node11 -->
<g id="node9" class="node">
<title>Node11</title>
<g id="a_node9"><a xlink:href="classomnetpp_1_1cWatch__cObject.html" target="_top" xlink:title="Watch class, specifically for objects subclassed from cObject.">
<polygon fill="white" stroke="black" points="460.5,-114.5 460.5,-133.5 554.5,-133.5 554.5,-114.5 460.5,-114.5"/>
<text text-anchor="middle" x="507.5" y="-121.5" font-family="Helvetica,sans-Serif" font-size="10.00">cWatch_cObject</text>
</a>
</g>
</g>
<!-- Node1&#45;&gt;Node11 -->
<g id="edge8" class="edge">
<title>Node1&#45;&gt;Node11</title>
<path fill="none" stroke="midnightblue" d="M396.3,-137.29C416.61,-134.84 440.26,-131.99 460.43,-129.56"/>
<polygon fill="midnightblue" stroke="midnightblue" points="395.83,-133.82 386.33,-138.5 396.67,-140.77 395.83,-133.82"/>
</g>
<!-- Node12 -->
<g id="node10" class="node">
<title>Node12</title>
<g id="a_node10"><a xlink:href="classomnetpp_1_1cWatch__cObjectPtr.html" target="_top" xlink:title="Watch class, specifically for pointers to objects subclassed from cObject.">
<polygon fill="white" stroke="black" points="454,-76.5 454,-95.5 561,-95.5 561,-76.5 454,-76.5"/>
<text text-anchor="middle" x="507.5" y="-83.5" font-family="Helvetica,sans-Serif" font-size="10.00">cWatch_cObjectPtr</text>
</a>
</g>
</g>
<!-- Node1&#45;&gt;Node12 -->
<g id="edge9" class="edge">
<title>Node1&#45;&gt;Node12</title>
<path fill="none" stroke="midnightblue" d="M373.3,-128.33C387.16,-120.48 405.1,-111.18 422,-105 432.17,-101.28 443.3,-98.15 454.05,-95.57"/>
<polygon fill="midnightblue" stroke="midnightblue" points="371.31,-125.43 364.41,-133.47 374.82,-131.49 371.31,-125.43"/>
</g>
<!-- Node13 -->
<g id="node11" class="node">
<title>Node13</title>
<g id="a_node11"><a xlink:href="classomnetpp_1_1cWatch__stdstring.html" target="_top" xlink:title="Watch class, specifically for std::string.">
<polygon fill="white" stroke="black" points="457.5,-38.5 457.5,-57.5 557.5,-57.5 557.5,-38.5 457.5,-38.5"/>
<text text-anchor="middle" x="507.5" y="-45.5" font-family="Helvetica,sans-Serif" font-size="10.00">cWatch_stdstring</text>
</a>
</g>
</g>
<!-- Node1&#45;&gt;Node13 -->
<g id="edge10" class="edge">
<title>Node1&#45;&gt;Node13</title>
<path fill="none" stroke="midnightblue" d="M361.32,-125.05C374.33,-107.5 396.49,-81.38 422,-67 432.74,-60.94 445.27,-56.82 457.34,-54.01"/>
<polygon fill="midnightblue" stroke="midnightblue" points="358.36,-123.17 355.37,-133.34 364.05,-127.25 358.36,-123.17"/>
</g>
<!-- Node14 -->
<g id="node12" class="node">
<title>Node14</title>
<g id="a_node12"><a xlink:href="classomnetpp_1_1cWatch__uchar.html" target="_top" xlink:title="Watch class, specifically for unsigned char.">
<polygon fill="white" stroke="black" points="465.5,-0.5 465.5,-19.5 549.5,-19.5 549.5,-0.5 465.5,-0.5"/>
<text text-anchor="middle" x="507.5" y="-7.5" font-family="Helvetica,sans-Serif" font-size="10.00">cWatch_uchar</text>
</a>
</g>
</g>
<!-- Node1&#45;&gt;Node14 -->
<g id="edge11" class="edge">
<title>Node1&#45;&gt;Node14</title>
<path fill="none" stroke="midnightblue" d="M355.89,-123.8C366.16,-98.06 388,-52.83 422,-29 434.56,-20.2 450.53,-15.39 465.19,-12.8"/>
<polygon fill="midnightblue" stroke="midnightblue" points="352.59,-122.64 352.3,-133.23 359.13,-125.13 352.59,-122.64"/>
</g>
<!-- Node2 -->
<g id="node2" class="node">
<title>Node2</title>
<g id="a_node2"><a xlink:href="classomnetpp_1_1cNoncopyableOwnedObject.html" target="_top" xlink:title="Base class for cOwnedObject&#45;based classes that do not wish to support assignment and duplication.">
<polygon fill="white" stroke="black" points="123,-133.5 123,-152.5 274,-152.5 274,-133.5 123,-133.5"/>
<text text-anchor="middle" x="198.5" y="-140.5" font-family="Helvetica,sans-Serif" font-size="10.00">cNoncopyableOwnedObject</text>
</a>
</g>
</g>
<!-- Node2&#45;&gt;Node1 -->
<g id="edge1" class="edge">
<title>Node2&#45;&gt;Node1</title>
<path fill="none" stroke="midnightblue" d="M284.28,-143C293.22,-143 301.94,-143 309.9,-143"/>
<polygon fill="midnightblue" stroke="midnightblue" points="284.11,-139.5 274.11,-143 284.11,-146.5 284.11,-139.5"/>
</g>
<!-- Node3 -->
<g id="node3" class="node">
<title>Node3</title>
<g id="a_node3"><a xlink:href="classomnetpp_1_1cOwnedObject.html" target="_top" xlink:title="A cObject that keeps track of its owner. It serves as base class for many classes in the OMNeT++ libr...">
<polygon fill="white" stroke="red" points="0,-152.5 0,-171.5 87,-171.5 87,-152.5 0,-152.5"/>
<text text-anchor="middle" x="43.5" y="-159.5" font-family="Helvetica,sans-Serif" font-size="10.00">cOwnedObject</text>
</a>
</g>
</g>
<!-- Node3&#45;&gt;Node2 -->
<g id="edge2" class="edge">
<title>Node3&#45;&gt;Node2</title>
<path fill="none" stroke="midnightblue" d="M97.05,-155.47C105.39,-154.44 114.15,-153.35 122.88,-152.27"/>
<polygon fill="midnightblue" stroke="midnightblue" points="96.61,-152 87.12,-156.71 97.47,-158.95 96.61,-152"/>
</g>
<!-- Node6 -->
<g id="node4" class="node">
<title>Node6</title>
<g id="a_node4"><a xlink:href="classomnetpp_1_1noncopyable.html" target="_top" xlink:title="Utility class, to make it impossible to call the operator= and copy constructor of any class derived ...">
<polygon fill="white" stroke="black" points="4,-114.5 4,-133.5 83,-133.5 83,-114.5 4,-114.5"/>
<text text-anchor="middle" x="43.5" y="-121.5" font-family="Helvetica,sans-Serif" font-size="10.00">noncopyable</text>
</a>
</g>
</g>
<!-- Node6&#45;&gt;Node2 -->
<g id="edge3" class="edge">
<title>Node6&#45;&gt;Node2</title>
<path fill="none" stroke="#8b1a1a" d="M93.1,-130.04C102.58,-131.21 112.72,-132.47 122.81,-133.73"/>
<polygon fill="#8b1a1a" stroke="#8b1a1a" points="93.46,-126.55 83.11,-128.79 92.6,-133.5 93.46,-126.55"/>
</g>
</g>
</svg>
