<?xml version="1.0" encoding="UTF-8" standalone="no"?>
<!DOCTYPE svg PUBLIC "-//W3C//DTD SVG 1.1//EN"
 "http://www.w3.org/Graphics/SVG/1.1/DTD/svg11.dtd">
<!-- Generated by graphviz version 2.43.0 (0)
 -->
<!-- Title: cNoncopyableOwnedObject Pages: 1 -->
<svg width="769pt" height="655pt"
 viewBox="0.00 0.00 769.00 655.00" xmlns="http://www.w3.org/2000/svg" xmlns:xlink="http://www.w3.org/1999/xlink">
<g id="graph0" class="graph" transform="scale(1 1) rotate(0) translate(4 651)">
<title>cNoncopyableOwnedObject</title>
<polygon fill="white" stroke="transparent" points="-4,4 -4,-651 765,-651 765,4 -4,4"/>
<!-- Node1 -->
<g id="node1" class="node">
<title>Node1</title>
<g id="a_node1"><a xlink:title="Base class for cOwnedObject&#45;based classes that do not wish to support assignment and duplication.">
<polygon fill="#bfbfbf" stroke="black" points="248,-418.5 248,-437.5 399,-437.5 399,-418.5 248,-418.5"/>
<text text-anchor="middle" x="323.5" y="-425.5" font-family="Helvetica,sans-Serif" font-size="10.00">cNoncopyableOwnedObject</text>
</a>
</g>
</g>
<!-- Node6 -->
<g id="node5" class="node">
<title>Node6</title>
<g id="a_node5"><a xlink:href="classomnetpp_1_1cClassDescriptor.html" target="_top" xlink:title="Abstract base class for class descriptors.">
<polygon fill="white" stroke="black" points="445.5,-627.5 445.5,-646.5 543.5,-646.5 543.5,-627.5 445.5,-627.5"/>
<text text-anchor="middle" x="494.5" y="-634.5" font-family="Helvetica,sans-Serif" font-size="10.00">cClassDescriptor</text>
</a>
</g>
</g>
<!-- Node1&#45;&gt;Node6 -->
<g id="edge4" class="edge">
<title>Node1&#45;&gt;Node6</title>
<path fill="none" stroke="midnightblue" d="M330.51,-447.4C343.37,-485.69 377.16,-571.32 435,-618 439.82,-621.89 445.46,-624.99 451.3,-627.46"/>
<polygon fill="midnightblue" stroke="midnightblue" points="333.73,-445.96 327.32,-437.52 327.07,-448.11 333.73,-445.96"/>
</g>
<!-- Node7 -->
<g id="node6" class="node">
<title>Node7</title>
<g id="a_node6"><a xlink:href="classomnetpp_1_1cComponentType.html" target="_top" xlink:title="Common base class for cModuleType and cChannelType.">
<polygon fill="white" stroke="black" points="444,-589.5 444,-608.5 545,-608.5 545,-589.5 444,-589.5"/>
<text text-anchor="middle" x="494.5" y="-596.5" font-family="Helvetica,sans-Serif" font-size="10.00">cComponentType</text>
</a>
</g>
</g>
<!-- Node1&#45;&gt;Node7 -->
<g id="edge5" class="edge">
<title>Node1&#45;&gt;Node7</title>
<path fill="none" stroke="midnightblue" d="M333.32,-447.01C349.16,-479.09 385.45,-544.02 435,-580 440.27,-583.83 446.35,-586.91 452.56,-589.38"/>
<polygon fill="midnightblue" stroke="midnightblue" points="336.39,-445.32 328.91,-437.82 330.08,-448.35 336.39,-445.32"/>
</g>
<!-- Node10 -->
<g id="node9" class="node">
<title>Node10</title>
<g id="a_node9"><a xlink:href="classomnetpp_1_1cConfigOption.html" target="_top" xlink:title="Describes a configuration option.">
<polygon fill="white" stroke="black" points="452,-551.5 452,-570.5 537,-570.5 537,-551.5 452,-551.5"/>
<text text-anchor="middle" x="494.5" y="-558.5" font-family="Helvetica,sans-Serif" font-size="10.00">cConfigOption</text>
</a>
</g>
</g>
<!-- Node1&#45;&gt;Node10 -->
<g id="edge8" class="edge">
<title>Node1&#45;&gt;Node10</title>
<path fill="none" stroke="midnightblue" d="M337.39,-446.02C356.16,-471 393.34,-516.02 435,-542 441.07,-545.79 447.97,-548.89 454.85,-551.41"/>
<polygon fill="midnightblue" stroke="midnightblue" points="340.08,-443.77 331.33,-437.79 334.44,-447.92 340.08,-443.77"/>
</g>
<!-- Node11 -->
<g id="node10" class="node">
<title>Node11</title>
<g id="a_node10"><a xlink:href="classomnetpp_1_1cMessagePrinter.html" target="_top" xlink:title="Base class for message printers.">
<polygon fill="white" stroke="black" points="445.5,-513.5 445.5,-532.5 543.5,-532.5 543.5,-513.5 445.5,-513.5"/>
<text text-anchor="middle" x="494.5" y="-520.5" font-family="Helvetica,sans-Serif" font-size="10.00">cMessagePrinter</text>
</a>
</g>
</g>
<!-- Node1&#45;&gt;Node11 -->
<g id="edge9" class="edge">
<title>Node1&#45;&gt;Node11</title>
<path fill="none" stroke="midnightblue" d="M343.99,-444.01C365.27,-460.84 400.86,-487.16 435,-504 442.37,-507.64 450.6,-510.81 458.51,-513.46"/>
<polygon fill="midnightblue" stroke="midnightblue" points="346.05,-441.17 336.06,-437.64 341.67,-446.63 346.05,-441.17"/>
</g>
<!-- Node13 -->
<g id="node12" class="node">
<title>Node13</title>
<g id="a_node12"><a xlink:href="classomnetpp_1_1cNedFunction.html" target="_top" xlink:title="Registration class for extending NED with arbitrary new functions.">
<polygon fill="white" stroke="black" points="453,-475.5 453,-494.5 536,-494.5 536,-475.5 453,-475.5"/>
<text text-anchor="middle" x="494.5" y="-482.5" font-family="Helvetica,sans-Serif" font-size="10.00">cNedFunction</text>
</a>
</g>
</g>
<!-- Node1&#45;&gt;Node13 -->
<g id="edge11" class="edge">
<title>Node1&#45;&gt;Node13</title>
<path fill="none" stroke="midnightblue" d="M361.4,-440.87C382.85,-448.3 410.42,-457.78 435,-466 444.32,-469.11 454.49,-472.44 463.71,-475.43"/>
<polygon fill="midnightblue" stroke="midnightblue" points="362.3,-437.47 351.7,-437.5 360,-444.09 362.3,-437.47"/>
</g>
<!-- Node14 -->
<g id="node13" class="node">
<title>Node14</title>
<g id="a_node13"><a xlink:href="classomnetpp_1_1cNedMathFunction.html" target="_top" xlink:title="Registration class for extending NED with new mathematical functions.">
<polygon fill="white" stroke="black" points="441,-437.5 441,-456.5 548,-456.5 548,-437.5 441,-437.5"/>
<text text-anchor="middle" x="494.5" y="-444.5" font-family="Helvetica,sans-Serif" font-size="10.00">cNedMathFunction</text>
</a>
</g>
</g>
<!-- Node1&#45;&gt;Node14 -->
<g id="edge12" class="edge">
<title>Node1&#45;&gt;Node14</title>
<path fill="none" stroke="midnightblue" d="M409.31,-437.53C419.96,-438.73 430.61,-439.93 440.57,-441.05"/>
<polygon fill="midnightblue" stroke="midnightblue" points="409.45,-434.03 399.12,-436.39 408.66,-440.98 409.45,-434.03"/>
</g>
<!-- Node15 -->
<g id="node14" class="node">
<title>Node15</title>
<g id="a_node14"><a xlink:href="classomnetpp_1_1cObjectFactory.html" target="_top" xlink:title="The class behind the createOne() function and the Register_Class() macro.">
<polygon fill="white" stroke="black" points="450,-399.5 450,-418.5 539,-418.5 539,-399.5 450,-399.5"/>
<text text-anchor="middle" x="494.5" y="-406.5" font-family="Helvetica,sans-Serif" font-size="10.00">cObjectFactory</text>
</a>
</g>
</g>
<!-- Node1&#45;&gt;Node15 -->
<g id="edge13" class="edge">
<title>Node1&#45;&gt;Node15</title>
<path fill="none" stroke="midnightblue" d="M409.31,-418.46C423.35,-416.89 437.37,-415.31 449.83,-413.91"/>
<polygon fill="midnightblue" stroke="midnightblue" points="408.66,-415.02 399.12,-419.61 409.45,-421.97 408.66,-415.02"/>
</g>
<!-- Node16 -->
<g id="node15" class="node">
<title>Node16</title>
<g id="a_node15"><a xlink:href="classomnetpp_1_1cOutVector.html" target="_top" xlink:title="Responsible for recording an &quot;output vector&quot; into the simulation results file. An output vector is a ...">
<polygon fill="white" stroke="black" points="459.5,-361.5 459.5,-380.5 529.5,-380.5 529.5,-361.5 459.5,-361.5"/>
<text text-anchor="middle" x="494.5" y="-368.5" font-family="Helvetica,sans-Serif" font-size="10.00">cOutVector</text>
</a>
</g>
</g>
<!-- Node1&#45;&gt;Node16 -->
<g id="edge14" class="edge">
<title>Node1&#45;&gt;Node16</title>
<path fill="none" stroke="midnightblue" d="M361.4,-415.13C382.85,-407.7 410.42,-398.22 435,-390 444.32,-386.89 454.49,-383.56 463.71,-380.57"/>
<polygon fill="midnightblue" stroke="midnightblue" points="360,-411.91 351.7,-418.5 362.3,-418.53 360,-411.91"/>
</g>
<!-- Node17 -->
<g id="node16" class="node">
<title>Node17</title>
<g id="a_node16"><a xlink:href="classomnetpp_1_1cResultFilterType.html" target="_top" xlink:title="Registers a cResultFilter.">
<polygon fill="white" stroke="black" points="444.5,-323.5 444.5,-342.5 544.5,-342.5 544.5,-323.5 444.5,-323.5"/>
<text text-anchor="middle" x="494.5" y="-330.5" font-family="Helvetica,sans-Serif" font-size="10.00">cResultFilterType</text>
</a>
</g>
</g>
<!-- Node1&#45;&gt;Node17 -->
<g id="edge15" class="edge">
<title>Node1&#45;&gt;Node17</title>
<path fill="none" stroke="midnightblue" d="M343.99,-411.99C365.27,-395.16 400.86,-368.84 435,-352 442.37,-348.36 450.6,-345.19 458.51,-342.54"/>
<polygon fill="midnightblue" stroke="midnightblue" points="341.67,-409.37 336.06,-418.36 346.05,-414.83 341.67,-409.37"/>
</g>
<!-- Node18 -->
<g id="node17" class="node">
<title>Node18</title>
<g id="a_node17"><a xlink:href="classomnetpp_1_1cResultRecorderType.html" target="_top" xlink:title="Registers a cResultRecorder.">
<polygon fill="white" stroke="black" points="435,-285.5 435,-304.5 554,-304.5 554,-285.5 435,-285.5"/>
<text text-anchor="middle" x="494.5" y="-292.5" font-family="Helvetica,sans-Serif" font-size="10.00">cResultRecorderType</text>
</a>
</g>
</g>
<!-- Node1&#45;&gt;Node18 -->
<g id="edge16" class="edge">
<title>Node1&#45;&gt;Node18</title>
<path fill="none" stroke="midnightblue" d="M337.39,-409.98C356.16,-385 393.34,-339.98 435,-314 441.07,-310.21 447.97,-307.11 454.85,-304.59"/>
<polygon fill="midnightblue" stroke="midnightblue" points="334.44,-408.08 331.33,-418.21 340.08,-412.23 334.44,-408.08"/>
</g>
<!-- Node19 -->
<g id="node18" class="node">
<title>Node19</title>
<g id="a_node18"><a xlink:href="classomnetpp_1_1cSoftOwner.html" target="_top" xlink:title="Internal class, used as a base class for modules and channels. It is not intended for subclassing out...">
<polygon fill="white" stroke="black" points="458.5,-247.5 458.5,-266.5 530.5,-266.5 530.5,-247.5 458.5,-247.5"/>
<text text-anchor="middle" x="494.5" y="-254.5" font-family="Helvetica,sans-Serif" font-size="10.00">cSoftOwner</text>
</a>
</g>
</g>
<!-- Node1&#45;&gt;Node19 -->
<g id="edge17" class="edge">
<title>Node1&#45;&gt;Node19</title>
<path fill="none" stroke="midnightblue" d="M333.32,-408.99C349.16,-376.91 385.45,-311.98 435,-276 441.91,-270.98 450.22,-267.24 458.37,-264.48"/>
<polygon fill="midnightblue" stroke="midnightblue" points="330.08,-407.65 328.91,-418.18 336.39,-410.68 330.08,-407.65"/>
</g>
<!-- Node27 -->
<g id="node20" class="node">
<title>Node27</title>
<g id="a_node20"><a xlink:href="classomnetpp_1_1cWatchBase.html" target="_top" xlink:title="Helper class to make primitive types and non&#45;cOwnedObject objects inspectable in Qtenv....">
<polygon fill="white" stroke="black" points="456.5,-152.5 456.5,-171.5 532.5,-171.5 532.5,-152.5 456.5,-152.5"/>
<text text-anchor="middle" x="494.5" y="-159.5" font-family="Helvetica,sans-Serif" font-size="10.00">cWatchBase</text>
</a>
</g>
</g>
<!-- Node1&#45;&gt;Node27 -->
<g id="edge19" class="edge">
<title>Node1&#45;&gt;Node27</title>
<path fill="none" stroke="midnightblue" d="M334.36,-409.25C352.8,-374.6 394.34,-298.55 435,-238 451.71,-213.12 473.84,-185.65 485.51,-171.54"/>
<polygon fill="midnightblue" stroke="midnightblue" points="331.18,-407.77 329.59,-418.24 337.37,-411.04 331.18,-407.77"/>
</g>
<!-- Node2 -->
<g id="node2" class="node">
<title>Node2</title>
<g id="a_node2"><a xlink:href="classomnetpp_1_1cOwnedObject.html" target="_top" xlink:title="A cObject that keeps track of its owner. It serves as base class for many classes in the OMNeT++ libr...">
<polygon fill="white" stroke="black" points="125,-437.5 125,-456.5 212,-456.5 212,-437.5 125,-437.5"/>
<text text-anchor="middle" x="168.5" y="-444.5" font-family="Helvetica,sans-Serif" font-size="10.00">cOwnedObject</text>
</a>
</g>
</g>
<!-- Node2&#45;&gt;Node1 -->
<g id="edge1" class="edge">
<title>Node2&#45;&gt;Node1</title>
<path fill="none" stroke="midnightblue" d="M222.05,-440.47C230.39,-439.44 239.15,-438.35 247.88,-437.27"/>
<polygon fill="midnightblue" stroke="midnightblue" points="221.61,-437 212.12,-441.71 222.47,-443.95 221.61,-437"/>
</g>
<!-- Node3 -->
<g id="node3" class="node">
<title>Node3</title>
<g id="a_node3"><a xlink:href="classomnetpp_1_1cNamedObject.html" target="_top" xlink:title="Extends cObject with a name string. Also includes a &quot;flags&quot; member, with bits open for use by subclas...">
<polygon fill="white" stroke="red" points="0,-437.5 0,-456.5 89,-456.5 89,-437.5 0,-437.5"/>
<text text-anchor="middle" x="44.5" y="-444.5" font-family="Helvetica,sans-Serif" font-size="10.00">cNamedObject</text>
</a>
</g>
</g>
<!-- Node3&#45;&gt;Node2 -->
<g id="edge2" class="edge">
<title>Node3&#45;&gt;Node2</title>
<path fill="none" stroke="midnightblue" d="M99.46,-447C107.99,-447 116.7,-447 124.92,-447"/>
<polygon fill="midnightblue" stroke="midnightblue" points="99.2,-443.5 89.2,-447 99.2,-450.5 99.2,-443.5"/>
</g>
<!-- Node5 -->
<g id="node4" class="node">
<title>Node5</title>
<g id="a_node4"><a xlink:href="classomnetpp_1_1noncopyable.html" target="_top" xlink:title="Utility class, to make it impossible to call the operator= and copy constructor of any class derived ...">
<polygon fill="white" stroke="black" points="129,-399.5 129,-418.5 208,-418.5 208,-399.5 129,-399.5"/>
<text text-anchor="middle" x="168.5" y="-406.5" font-family="Helvetica,sans-Serif" font-size="10.00">noncopyable</text>
</a>
</g>
</g>
<!-- Node5&#45;&gt;Node1 -->
<g id="edge3" class="edge">
<title>Node5&#45;&gt;Node1</title>
<path fill="none" stroke="#8b1a1a" d="M218.1,-415.04C227.58,-416.21 237.72,-417.47 247.81,-418.73"/>
<polygon fill="#8b1a1a" stroke="#8b1a1a" points="218.46,-411.55 208.11,-413.79 217.6,-418.5 218.46,-411.55"/>
</g>
<!-- Node8 -->
<g id="node7" class="node">
<title>Node8</title>
<g id="a_node7"><a xlink:href="classomnetpp_1_1cChannelType.html" target="_top" xlink:title="Abstract base class for creating a channel of a given type.">
<polygon fill="white" stroke="black" points="633.5,-608.5 633.5,-627.5 717.5,-627.5 717.5,-608.5 633.5,-608.5"/>
<text text-anchor="middle" x="675.5" y="-615.5" font-family="Helvetica,sans-Serif" font-size="10.00">cChannelType</text>
</a>
</g>
</g>
<!-- Node7&#45;&gt;Node8 -->
<g id="edge6" class="edge">
<title>Node7&#45;&gt;Node8</title>
<path fill="none" stroke="midnightblue" d="M555.35,-605.35C580.96,-608.07 610.24,-611.18 633.36,-613.63"/>
<polygon fill="midnightblue" stroke="midnightblue" points="555.68,-601.87 545.36,-604.29 554.94,-608.83 555.68,-601.87"/>
</g>
<!-- Node9 -->
<g id="node8" class="node">
<title>Node9</title>
<g id="a_node8"><a xlink:href="classomnetpp_1_1cModuleType.html" target="_top" xlink:title="Abstract class for creating a module of a specific type.">
<polygon fill="white" stroke="black" points="635.5,-570.5 635.5,-589.5 715.5,-589.5 715.5,-570.5 635.5,-570.5"/>
<text text-anchor="middle" x="675.5" y="-577.5" font-family="Helvetica,sans-Serif" font-size="10.00">cModuleType</text>
</a>
</g>
</g>
<!-- Node7&#45;&gt;Node9 -->
<g id="edge7" class="edge">
<title>Node7&#45;&gt;Node9</title>
<path fill="none" stroke="midnightblue" d="M555.61,-592.62C581.93,-589.83 612.05,-586.63 635.39,-584.15"/>
<polygon fill="midnightblue" stroke="midnightblue" points="554.94,-589.17 545.36,-593.71 555.68,-596.13 554.94,-589.17"/>
</g>
<!-- Node12 -->
<g id="node11" class="node">
<title>Node12</title>
<g id="a_node11"><a xlink:href="classomnetpp_1_1cDefaultMessagePrinter.html" target="_top" xlink:title="A default message printer that displays the ID, kind, and length (for packets) of the message.">
<polygon fill="white" stroke="black" points="608.5,-513.5 608.5,-532.5 742.5,-532.5 742.5,-513.5 608.5,-513.5"/>
<text text-anchor="middle" x="675.5" y="-520.5" font-family="Helvetica,sans-Serif" font-size="10.00">cDefaultMessagePrinter</text>
</a>
</g>
</g>
<!-- Node11&#45;&gt;Node12 -->
<g id="edge10" class="edge">
<title>Node11&#45;&gt;Node12</title>
<path fill="none" stroke="midnightblue" d="M554.41,-523C571.63,-523 590.57,-523 608.21,-523"/>
<polygon fill="midnightblue" stroke="midnightblue" points="553.94,-519.5 543.94,-523 553.94,-526.5 553.94,-519.5"/>
</g>
<!-- Node20 -->
<g id="node19" class="node">
<title>Node20</title>
<g id="a_node19"><a xlink:href="classomnetpp_1_1cComponent.html" target="_top" xlink:title="Common base for module and channel classes.">
<polygon fill="white" stroke="red" points="636.5,-304.5 636.5,-323.5 714.5,-323.5 714.5,-304.5 636.5,-304.5"/>
<text text-anchor="middle" x="675.5" y="-311.5" font-family="Helvetica,sans-Serif" font-size="10.00">cComponent</text>
</a>
</g>
</g>
<!-- Node19&#45;&gt;Node20 -->
<g id="edge18" class="edge">
<title>Node19&#45;&gt;Node20</title>
<path fill="none" stroke="midnightblue" d="M538.03,-269.86C543.46,-271.78 548.9,-273.84 554,-276 570.66,-283.04 573.03,-288.74 590,-295 604.81,-300.46 621.69,-304.64 636.45,-307.67"/>
<polygon fill="midnightblue" stroke="midnightblue" points="538.95,-266.48 528.35,-266.58 536.7,-273.11 538.95,-266.48"/>
</g>
<!-- Node28 -->
<g id="node21" class="node">
<title>Node28</title>
<g id="a_node21"><a xlink:href="classomnetpp_1_1cGenericAssignableWatch.html" target="_top" xlink:title="Template Watch class, for any type that supports operator&lt;&lt;, and operator&gt;&gt; for assignment.">
<polygon fill="white" stroke="black" points="590,-266.5 590,-285.5 761,-285.5 761,-266.5 590,-266.5"/>
<text text-anchor="middle" x="675.5" y="-273.5" font-family="Helvetica,sans-Serif" font-size="10.00">cGenericAssignableWatch&lt; T &gt;</text>
</a>
</g>
</g>
<!-- Node27&#45;&gt;Node28 -->
<g id="edge20" class="edge">
<title>Node27&#45;&gt;Node28</title>
<path fill="none" stroke="midnightblue" d="M508.18,-179.91C524.53,-201.63 555.08,-237.71 590,-257 596.98,-260.85 604.69,-263.92 612.53,-266.37"/>
<polygon fill="midnightblue" stroke="midnightblue" points="510.8,-177.57 502.06,-171.58 505.15,-181.71 510.8,-177.57"/>
</g>
<!-- Node29 -->
<g id="node22" class="node">
<title>Node29</title>
<g id="a_node22"><a xlink:href="classomnetpp_1_1cGenericReadonlyWatch.html" target="_top" xlink:title="Template Watch class, for any type that supports operator&lt;&lt;.">
<polygon fill="white" stroke="black" points="593.5,-228.5 593.5,-247.5 757.5,-247.5 757.5,-228.5 593.5,-228.5"/>
<text text-anchor="middle" x="675.5" y="-235.5" font-family="Helvetica,sans-Serif" font-size="10.00">cGenericReadonlyWatch&lt; T &gt;</text>
</a>
</g>
</g>
<!-- Node27&#45;&gt;Node29 -->
<g id="edge21" class="edge">
<title>Node27&#45;&gt;Node29</title>
<path fill="none" stroke="midnightblue" d="M516.51,-177.39C535.01,-190.26 563.11,-208.2 590,-219 599.49,-222.81 609.9,-225.94 620.07,-228.48"/>
<polygon fill="midnightblue" stroke="midnightblue" points="518.43,-174.47 508.25,-171.54 514.38,-180.18 518.43,-174.47"/>
</g>
<!-- Node30 -->
<g id="node23" class="node">
<title>Node30</title>
<g id="a_node23"><a xlink:href="classomnetpp_1_1cWatch__bool.html" target="_top" xlink:title="Watch class, specifically for bool.">
<polygon fill="white" stroke="black" points="636.5,-190.5 636.5,-209.5 714.5,-209.5 714.5,-190.5 636.5,-190.5"/>
<text text-anchor="middle" x="675.5" y="-197.5" font-family="Helvetica,sans-Serif" font-size="10.00">cWatch_bool</text>
</a>
</g>
</g>
<!-- Node27&#45;&gt;Node30 -->
<g id="edge22" class="edge">
<title>Node27&#45;&gt;Node30</title>
<path fill="none" stroke="midnightblue" d="M542.56,-171.99C571.77,-178.19 608.83,-186.06 636.22,-191.87"/>
<polygon fill="midnightblue" stroke="midnightblue" points="543.1,-168.53 532.59,-169.87 541.64,-175.37 543.1,-168.53"/>
</g>
<!-- Node31 -->
<g id="node24" class="node">
<title>Node31</title>
<g id="a_node24"><a xlink:href="classomnetpp_1_1cWatch__char.html" target="_top" xlink:title="Watch class, specifically for char.">
<polygon fill="white" stroke="black" points="636.5,-152.5 636.5,-171.5 714.5,-171.5 714.5,-152.5 636.5,-152.5"/>
<text text-anchor="middle" x="675.5" y="-159.5" font-family="Helvetica,sans-Serif" font-size="10.00">cWatch_char</text>
</a>
</g>
</g>
<!-- Node27&#45;&gt;Node31 -->
<g id="edge23" class="edge">
<title>Node27&#45;&gt;Node31</title>
<path fill="none" stroke="midnightblue" d="M542.95,-162C572.1,-162 608.94,-162 636.22,-162"/>
<polygon fill="midnightblue" stroke="midnightblue" points="542.59,-158.5 532.59,-162 542.59,-165.5 542.59,-158.5"/>
</g>
<!-- Node32 -->
<g id="node25" class="node">
<title>Node32</title>
<g id="a_node25"><a xlink:href="classomnetpp_1_1cWatch__cObject.html" target="_top" xlink:title="Watch class, specifically for objects subclassed from cObject.">
<polygon fill="white" stroke="black" points="628.5,-114.5 628.5,-133.5 722.5,-133.5 722.5,-114.5 628.5,-114.5"/>
<text text-anchor="middle" x="675.5" y="-121.5" font-family="Helvetica,sans-Serif" font-size="10.00">cWatch_cObject</text>
</a>
</g>
</g>
<!-- Node27&#45;&gt;Node32 -->
<g id="edge24" class="edge">
<title>Node27&#45;&gt;Node32</title>
<path fill="none" stroke="midnightblue" d="M542.54,-152.01C569.44,-146.3 602.99,-139.18 629.53,-133.55"/>
<polygon fill="midnightblue" stroke="midnightblue" points="541.64,-148.63 532.59,-154.13 543.1,-155.47 541.64,-148.63"/>
</g>
<!-- Node33 -->
<g id="node26" class="node">
<title>Node33</title>
<g id="a_node26"><a xlink:href="classomnetpp_1_1cWatch__cObjectPtr.html" target="_top" xlink:title="Watch class, specifically for pointers to objects subclassed from cObject.">
<polygon fill="white" stroke="black" points="622,-76.5 622,-95.5 729,-95.5 729,-76.5 622,-76.5"/>
<text text-anchor="middle" x="675.5" y="-83.5" font-family="Helvetica,sans-Serif" font-size="10.00">cWatch_cObjectPtr</text>
</a>
</g>
</g>
<!-- Node27&#45;&gt;Node33 -->
<g id="edge25" class="edge">
<title>Node27&#45;&gt;Node33</title>
<path fill="none" stroke="midnightblue" d="M516.51,-146.61C535.01,-133.74 563.11,-115.8 590,-105 600.05,-100.96 611.13,-97.7 621.86,-95.08"/>
<polygon fill="midnightblue" stroke="midnightblue" points="514.38,-143.82 508.25,-152.46 518.43,-149.53 514.38,-143.82"/>
</g>
<!-- Node34 -->
<g id="node27" class="node">
<title>Node34</title>
<g id="a_node27"><a xlink:href="classomnetpp_1_1cWatch__stdstring.html" target="_top" xlink:title="Watch class, specifically for std::string.">
<polygon fill="white" stroke="black" points="625.5,-38.5 625.5,-57.5 725.5,-57.5 725.5,-38.5 625.5,-38.5"/>
<text text-anchor="middle" x="675.5" y="-45.5" font-family="Helvetica,sans-Serif" font-size="10.00">cWatch_stdstring</text>
</a>
</g>
</g>
<!-- Node27&#45;&gt;Node34 -->
<g id="edge26" class="edge">
<title>Node27&#45;&gt;Node34</title>
<path fill="none" stroke="midnightblue" d="M508.18,-144.09C524.53,-122.37 555.08,-86.29 590,-67 600.79,-61.04 613.34,-56.95 625.41,-54.14"/>
<polygon fill="midnightblue" stroke="midnightblue" points="505.15,-142.29 502.06,-152.42 510.8,-146.43 505.15,-142.29"/>
</g>
<!-- Node35 -->
<g id="node28" class="node">
<title>Node35</title>
<g id="a_node28"><a xlink:href="classomnetpp_1_1cWatch__uchar.html" target="_top" xlink:title="Watch class, specifically for unsigned char.">
<polygon fill="white" stroke="black" points="633.5,-0.5 633.5,-19.5 717.5,-19.5 717.5,-0.5 633.5,-0.5"/>
<text text-anchor="middle" x="675.5" y="-7.5" font-family="Helvetica,sans-Serif" font-size="10.00">cWatch_uchar</text>
</a>
</g>
</g>
<!-- Node27&#45;&gt;Node35 -->
<g id="edge27" class="edge">
<title>Node27&#45;&gt;Node35</title>
<path fill="none" stroke="midnightblue" d="M503.54,-142.95C516.95,-113.62 546.73,-57.79 590,-29 602.77,-20.5 618.78,-15.76 633.42,-13.13"/>
<polygon fill="midnightblue" stroke="midnightblue" points="500.18,-141.9 499.35,-152.46 506.58,-144.72 500.18,-141.9"/>
</g>
</g>
</svg>
